<?xml version="1.0" standalone="no"?>
<!DOCTYPE svg PUBLIC "-//W3C//DTD SVG 20010904//EN"
 "http://www.w3.org/TR/2001/REC-SVG-20010904/DTD/svg10.dtd">
<svg version="1.0" xmlns="http://www.w3.org/2000/svg"
 width="512.000000pt" height="512.000000pt" viewBox="0 0 512.000000 512.000000"
 preserveAspectRatio="xMidYMid meet">

<g transform="translate(0.000000,512.000000) scale(0.100000,-0.100000)"
fill="#000000" stroke="none">
<path d="M2015 5106 c-41 -18 -83 -69 -90 -109 -4 -18 -5 -118 -3 -224 3 -210
5 -218 72 -267 27 -21 38 -21 566 -21 528 0 539 0 566 21 68 51 69 53 69 294
0 241 -1 243 -69 294 -27 21 -40 21 -554 23 -423 2 -533 0 -557 -11z"/>
<path d="M1917 4118 c-84 -58 -189 -160 -255 -247 -116 -154 -216 -393 -216
-516 -1 -120 63 -220 176 -274 l60 -28 -36 -22 c-115 -71 -206 -244 -206 -391
0 -147 91 -320 206 -391 l36 -22 -61 -29 c-73 -35 -133 -100 -161 -175 -20
-54 -20 -68 -18 -916 l3 -862 26 -56 c33 -71 87 -125 158 -158 l56 -26 875 0
875 0 56 26 c71 33 125 87 158 158 l26 56 3 862 c2 848 2 862 -18 916 -28 74
-87 139 -160 176 l-60 29 35 22 c114 70 205 243 205 390 0 147 -91 320 -206
391 l-36 22 60 28 c113 54 177 154 176 274 0 123 -101 362 -218 519 -66 87
-171 188 -255 245 l-60 41 -583 -1 -583 0 -58 -41z"/>
</g>
</svg>
