<?xml version="1.0" standalone="no"?>
<!DOCTYPE svg PUBLIC "-//W3C//DTD SVG 20010904//EN"
 "http://www.w3.org/TR/2001/REC-SVG-20010904/DTD/svg10.dtd">
<svg version="1.0" xmlns="http://www.w3.org/2000/svg"
 width="512.000000pt" height="512.000000pt" viewBox="0 0 512.000000 512.000000"
 preserveAspectRatio="xMidYMid meet">

<g transform="translate(0.000000,512.000000) scale(0.100000,-0.100000)"
fill="#000000" stroke="none">
<path d="M241 4147 c-19 -7 -44 -25 -55 -40 -20 -27 -21 -40 -20 -265 4 -871
263 -1777 701 -2446 124 -190 200 -286 239 -302 28 -12 197 -14 1017 -14 696
0 993 3 1016 11 32 11 85 75 203 244 60 88 183 293 219 366 l22 47 266 5 c244
4 274 6 362 30 516 136 833 637 728 1150 -38 190 -116 340 -249 480 -154 163
-321 256 -539 300 l-64 13 -1 169 c-1 152 -3 174 -21 205 -13 22 -34 39 -55
47 -50 17 -3720 17 -3769 0z m3946 -782 c246 -78 421 -286 455 -541 42 -313
-150 -612 -457 -710 -70 -22 -104 -26 -262 -31 -101 -3 -183 -4 -183 -1 0 3
18 52 39 109 135 360 214 690 277 1157 7 52 18 53 131 17z"/>
</g>
</svg>
