<?xml version="1.0" encoding="UTF-8"?>
<!DOCTYPE svg PUBLIC "-//W3C//DTD SVG 1.1//EN" "http://www.w3.org/Graphics/SVG/1.1/DTD/svg11.dtd">
<svg xmlns="http://www.w3.org/2000/svg" version="1.1" width="512px" height="512px" style="shape-rendering:geometricPrecision; text-rendering:geometricPrecision; image-rendering:optimizeQuality; fill-rule:evenodd; clip-rule:evenodd" xmlns:xlink="http://www.w3.org/1999/xlink">
<g><path style="opacity:0.978" fill="#000000" d="M 45.5,-0.5 C 185.5,-0.5 325.5,-0.5 465.5,-0.5C 474.175,5.09769 477.008,13.0977 474,23.5C 455.333,170.833 436.667,318.167 418,465.5C 412.756,490.242 397.923,505.575 373.5,511.5C 294.833,511.5 216.167,511.5 137.5,511.5C 113.068,505.567 98.2349,490.233 93,465.5C 74.3333,318.167 55.6667,170.833 37,23.5C 33.9921,13.0977 36.8255,5.09769 45.5,-0.5 Z M 69.5,29.5 C 193.5,29.5 317.5,29.5 441.5,29.5C 435.828,78.2087 429.828,126.875 423.5,175.5C 379.956,158.899 335.623,156.399 290.5,168C 261.754,177.804 232.754,186.804 203.5,195C 177.434,199.903 151.434,199.57 125.5,194C 112.914,190.859 100.58,187.026 88.5,182.5C 81.757,131.556 75.4237,80.5563 69.5,29.5 Z M 338.5,191.5 C 365.781,191.856 392.114,197.023 417.5,207C 418.428,207.388 419.095,208.055 419.5,209C 411.054,271.787 402.888,334.62 395,397.5C 392.154,412.01 383.321,419.843 368.5,421C 293.167,421.667 217.833,421.667 142.5,421C 127.679,419.843 118.846,412.01 116,397.5C 108.133,337.108 100.466,276.774 93,216.5C 139.09,233.663 185.59,234.83 232.5,220C 258.326,210.058 284.659,201.725 311.5,195C 320.617,193.569 329.617,192.403 338.5,191.5 Z M 122.5,448.5 C 125.421,449.481 128.421,450.315 131.5,451C 214.167,451.667 296.833,451.667 379.5,451C 382.43,450.394 385.263,449.56 388,448.5C 389.81,462.383 384.643,472.55 372.5,479C 369.576,479.988 366.576,480.654 363.5,481C 291.5,481.667 219.5,481.667 147.5,481C 135.557,479.957 127.724,473.79 124,462.5C 123.171,457.863 122.671,453.196 122.5,448.5 Z"/></g>
</svg>
