<?xml version="1.0" encoding="UTF-8"?>
<!DOCTYPE svg PUBLIC "-//W3C//DTD SVG 1.1//EN" "http://www.w3.org/Graphics/SVG/1.1/DTD/svg11.dtd">
<svg xmlns="http://www.w3.org/2000/svg" version="1.1" width="512px" height="512px" style="shape-rendering:geometricPrecision; text-rendering:geometricPrecision; image-rendering:optimizeQuality; fill-rule:evenodd; clip-rule:evenodd" xmlns:xlink="http://www.w3.org/1999/xlink">
<g><path style="opacity:0.988" fill="#000000" d="M 203.5,23.5 C 222.17,23.3334 240.836,23.5001 259.5,24C 261.333,24.5 262.5,25.6667 263,27.5C 263.499,31.4862 263.666,35.4862 263.5,39.5C 242.167,39.5 220.833,39.5 199.5,39.5C 199.334,35.4862 199.501,31.4862 200,27.5C 200.69,25.6498 201.856,24.3164 203.5,23.5 Z"/></g>
<g><path style="opacity:0.997" fill="#000000" d="M 169.5,55.5 C 210.835,55.3333 252.168,55.5 293.5,56C 298,57.8333 301.167,61 303,65.5C 303.5,83.4969 303.667,101.497 303.5,119.5C 255.5,119.5 207.5,119.5 159.5,119.5C 159.333,101.497 159.5,83.4969 160,65.5C 162.022,60.98 165.189,57.6467 169.5,55.5 Z"/></g>
<g><path style="opacity:0.962" fill="#000000" d="M 317.5,64.5 C 324.993,63.8336 332.659,63.5003 340.5,63.5C 349.239,63.3771 357.905,63.8771 366.5,65C 383.586,74.5941 388.086,88.4275 380,106.5C 376.726,111.774 372.226,115.608 366.5,118C 350.904,119.453 335.238,119.953 319.5,119.5C 319.5,114.167 319.5,108.833 319.5,103.5C 332.894,103.925 346.227,103.425 359.5,102C 366.414,98.2303 368.247,92.7303 365,85.5C 363.457,83.6217 361.624,82.1217 359.5,81C 346.227,79.5755 332.894,79.0755 319.5,79.5C 319.556,74.2688 318.889,69.2688 317.5,64.5 Z"/></g>
<g><path style="opacity:0.998" fill="#000000" d="M 153.5,135.5 C 205.501,135.333 257.501,135.5 309.5,136C 323.504,151.511 332.004,169.678 335,190.5C 335.667,279.167 335.667,367.833 335,456.5C 330.833,472.667 320.667,482.833 304.5,487C 255.833,487.667 207.167,487.667 158.5,487C 142.333,482.833 132.167,472.667 128,456.5C 127.333,367.833 127.333,279.167 128,190.5C 131.135,169.57 139.635,151.237 153.5,135.5 Z"/></g>
</svg>
